<svg width="60" height="60" viewBox="0 0 60 60" fill="none" xmlns="http://www.w3.org/2000/svg">
<path d="M5.45624 45.0497L5.45811 56.1825C5.45811 56.684 5.55689 57.1804 5.74879 57.6437C5.9407 58.1069 6.22198 58.5278 6.57656 58.8823C6.93115 59.2368 7.3521 59.5179 7.81537 59.7097C8.27864 59.9015 8.77515 60.0002 9.27655 60H20.0639C20.6146 59.9999 21.1588 59.8807 21.6591 59.6506C22.1594 59.4205 22.6041 59.0849 22.9626 58.6669L53.6264 22.8919C54.2191 22.1999 54.545 21.3187 54.5451 20.4075V9.27474C54.5452 8.77331 54.4465 8.27679 54.2547 7.81352C54.0628 7.35025 53.7816 6.9293 53.4271 6.57472C53.0725 6.22014 52.6516 5.93887 52.1884 5.74697C51.7251 5.55507 51.2286 5.4563 50.7272 5.4563H39.9384C39.3876 5.45638 38.8434 5.57556 38.343 5.80566C37.8425 6.03576 37.3978 6.37135 37.0392 6.78942L6.37546 42.5644C5.78252 43.2567 5.45619 44.1382 5.45624 45.0497Z" fill="#9747FF"/>
<path d="M5.45579 46.3875V56.181C5.45579 57.1936 5.85804 58.1647 6.57405 58.8808C7.29006 59.5968 8.26117 59.999 9.27376 59.999H21.5475C21.7281 59.999 21.9081 59.9864 22.0875 59.961L56.7206 55.0139C57.6305 54.8839 58.4629 54.43 59.0651 53.7356C59.6672 53.0413 59.9987 52.153 59.9986 51.2339V36.5414C59.9986 34.432 58.2891 32.7225 56.1797 32.7234L38.8008 32.7276C38.3906 32.7276 37.9828 32.7932 37.5942 32.9235L8.06626 42.7664C7.30619 43.02 6.64512 43.5062 6.17657 44.1562C5.70801 44.8062 5.4557 45.5871 5.45532 46.3884L5.45579 46.3875Z" fill="url(#paint0_linear_46_55)"/>
<path d="M0.000793457 3.81797V35.6625C0.00111489 36.4096 0.220466 37.1401 0.631705 37.7638C1.04294 38.3875 1.62802 38.877 2.31454 39.1716L37.4609 54.2344C37.9365 54.4375 38.4481 54.5425 38.9652 54.5433H56.1805C57.1931 54.5433 58.1642 54.141 58.8802 53.425C59.5962 52.709 59.9985 51.7379 59.9985 50.7253V33.8831C59.9984 33.1287 59.7749 32.3911 59.3563 31.7634L39.2914 1.70016C38.9429 1.17749 38.4707 0.748959 37.9168 0.452616C37.3629 0.156272 36.7443 0.00128248 36.1161 0.00140628L3.81923 2.8778e-08C3.31781 -6.15332e-05 2.82129 0.0986477 2.35801 0.290491C1.89474 0.482334 1.4738 0.763554 1.11922 1.11809C0.764635 1.47263 0.483364 1.89354 0.291464 2.35679C0.0995637 2.82003 0.000793453 3.31655 0.000793457 3.81797Z" fill="url(#paint1_linear_46_55)"/>
<path d="M48.7491 11.2495H11.2505V48.7481H48.7491V11.2495Z" fill="#1E1E1E" fill-opacity="0.38"/>
<path d="M34.9523 15.6655C33.6051 15.6655 32.3856 15.9837 31.2937 16.6199C30.2022 17.2499 29.3453 18.1208 28.7231 19.2327C28.0997 20.338 27.7878 21.574 27.7875 22.9405C27.7878 24.3068 28.0997 25.5454 28.7231 26.6563C29.3465 27.7616 30.2016 28.6321 31.2937 29.2691C32.3859 29.8982 33.6061 30.216 34.9523 30.216C36.0905 30.216 37.1386 30.0027 38.0897 29.5808C39.0408 29.159 39.8287 28.5697 40.4592 27.8122C41.0925 27.0561 41.5312 26.1565 41.737 25.1919H38.8617C38.6742 25.701 38.3928 26.1497 38.0175 26.5382C37.649 26.9194 37.204 27.2137 36.6825 27.4208C36.1603 27.628 35.5875 27.7326 34.9715 27.7326C34.1405 27.7326 33.3933 27.5244 32.7239 27.1091C32.0536 26.6935 31.5275 26.1241 31.1456 25.401C30.7706 24.6716 30.583 23.8515 30.5826 22.9405C30.5826 22.0293 30.7701 21.2116 31.1451 20.4876C31.5276 19.7576 32.0539 19.1846 32.7239 18.7687C33.3933 18.3533 34.1405 18.149 34.9711 18.149C35.587 18.149 36.1598 18.2535 36.6825 18.4607C37.1875 18.6574 37.6433 18.9625 38.0175 19.3546C38.3925 19.7362 38.6739 20.181 38.8617 20.6891H41.737C41.5325 19.7265 41.0936 18.8292 40.4592 18.0768C39.8292 17.3127 39.0408 16.7226 38.0897 16.3002C37.1386 15.8783 36.0905 15.6655 34.9523 15.6655ZM16.0284 15.9051V29.9722H18.7706V24.6594H21.9839C22.9886 24.6591 23.8697 24.4779 24.6272 24.1157C25.3912 23.7477 25.9795 23.2312 26.3878 22.5679C26.8026 21.9046 27.0112 21.1194 27.0112 20.2555C27.0112 19.3916 26.8041 18.6346 26.3953 17.9774C25.9941 17.3205 25.4186 16.8112 24.6689 16.4493C23.9184 16.0869 23.0484 15.9055 22.0636 15.9055L16.0284 15.9051ZM18.7706 18.1869H21.885C22.3475 18.1872 22.7494 18.2747 23.0906 18.4494C23.4247 18.6039 23.7044 18.8557 23.8931 19.1718C24.0806 19.4793 24.1744 19.8562 24.1744 20.2785C24.1744 20.7004 24.0806 21.0718 23.8931 21.3927C23.7059 21.708 23.4384 21.9527 23.0906 22.1268C22.749 22.2943 22.3472 22.378 21.885 22.378H18.7706V18.1869ZM15.9328 41.2485V44.0624H30.9328V41.2485H15.9328Z" fill="white"/>
<defs>
<linearGradient id="paint0_linear_46_55" x1="7.14535" y1="60.6716" x2="57.4187" y2="37.3635" gradientUnits="userSpaceOnUse">
<stop offset="0.1" stop-color="#C95792"/>
<stop offset="0.59" stop-color="#9747FF"/>
</linearGradient>
<linearGradient id="paint1_linear_46_55" x1="56.2664" y1="56.0396" x2="1.23169" y2="1.00496" gradientUnits="userSpaceOnUse">
<stop offset="0.3" stop-color="#9747FF"/>
<stop offset="0.7" stop-color="#C95792"/>
</linearGradient>
</defs>
</svg>
