<svg width="60" height="60" viewBox="0 0 60 60" fill="none" xmlns="http://www.w3.org/2000/svg">
<path d="M45.9375 0H14.0625C6.296 0 0 6.296 0 14.0625V45.9375C0 53.704 6.296 60 14.0625 60H45.9375C53.704 60 60 53.704 60 45.9375V14.0625C60 6.296 53.704 0 45.9375 0Z" fill="url(#paint0_linear_51_24)"/>
<mask id="mask0_51_24" style="mask-type:luminance" maskUnits="userSpaceOnUse" x="8" y="8" width="44" height="44">
<path d="M8.90625 8.90625H51.0938V51.0938H8.90625V8.90625Z" fill="white"/>
</mask>
<g mask="url(#mask0_51_24)">
<path fill-rule="evenodd" clip-rule="evenodd" d="M47.7659 41.7679C45.4713 41.7042 43.6912 41.9392 42.1995 42.5669C41.7698 42.7394 41.0805 42.7394 41.0238 43.2801C41.2535 43.507 41.2812 43.8782 41.4825 44.1928C41.8263 44.7635 42.4296 45.5322 42.9743 45.9311L44.8104 47.2431C45.9293 47.9268 47.1916 48.3264 48.2817 49.0108C48.9131 49.4102 49.5441 49.9235 50.1755 50.3517C50.497 50.5797 50.6918 50.9512 51.0938 51.093V51.0067C50.8931 50.751 50.8352 50.3805 50.6353 50.0941L49.7735 49.2677C48.9422 48.1558 47.9086 47.1855 46.7897 46.3879C45.8714 45.7605 43.8637 44.9053 43.4906 43.8508L43.4341 43.7868C44.0644 43.7231 44.8104 43.5011 45.4134 43.33C46.3896 43.0743 47.2784 43.1306 48.2817 42.8742L49.6598 42.4748V42.2191C49.1433 41.706 48.7704 41.0214 48.2257 40.5372C46.7627 39.2826 45.1549 38.0561 43.4906 37.0298C42.6014 36.4598 41.4534 36.0883 40.5068 35.6045C40.1616 35.4332 39.5885 35.3477 39.3879 35.0627C38.8702 34.4364 38.584 33.6086 38.2111 32.8668L35.8587 27.9056C35.3423 26.7935 35.0259 25.6813 34.3957 24.655C31.44 19.8074 28.226 16.871 23.291 13.9905C22.23 13.3917 20.9677 13.1341 19.6254 12.821L17.4738 12.7061C17.014 12.5067 16.5553 11.9645 16.1536 11.7077C14.5181 10.6811 10.3003 8.45736 9.09422 11.3882C8.31961 13.2414 10.2424 15.066 10.8952 16.0075C11.3838 16.6633 12.0141 17.4044 12.3593 18.146C12.5522 18.6304 12.6166 19.1442 12.818 19.6574C13.2764 20.9118 13.7072 22.3096 14.3098 23.4792C14.6313 24.078 14.9691 24.7061 15.3708 25.2475C15.6005 25.567 16.0024 25.7038 16.088 26.2169C15.686 26.7876 15.6584 27.6421 15.4287 28.356C14.3953 31.5782 14.7973 35.5701 16.2602 37.9424C16.7201 38.6549 17.8036 40.2238 19.2738 39.6246C20.565 39.1113 20.277 37.4861 20.6498 36.0602C20.7366 35.7185 20.6789 35.4902 20.8505 35.2614V35.3254L22.0273 37.6919C22.9167 39.089 24.4666 40.5435 25.7571 41.5136C26.4452 42.0269 26.9906 42.9114 27.851 43.2246V43.1383H27.7945C27.622 42.8826 27.3635 42.7675 27.1341 42.5681C26.6177 42.055 26.044 41.4274 25.642 40.8574C24.4376 39.2608 23.3766 37.4924 22.4292 35.6678C21.9696 34.784 21.5677 33.8144 21.1959 32.9306C21.0223 32.5881 21.0223 32.0742 20.7361 31.9042C20.3051 32.5305 19.6751 33.0738 19.358 33.8432C18.8126 35.069 18.7561 36.5805 18.5555 38.1489C18.4397 38.1775 18.491 38.1489 18.4397 38.2127C17.5226 37.9853 17.2062 37.0431 16.8623 36.2456C16.0017 34.221 15.8576 30.9705 16.6036 28.6321C16.8042 28.0333 17.666 26.1513 17.322 25.581C17.1485 25.0392 16.5759 24.726 16.2595 24.2978C15.8866 23.756 15.4861 23.0721 15.2276 22.4732C14.5395 20.8755 14.1954 19.1083 13.4487 17.5115C13.1034 16.7699 12.5016 15.9998 12.0134 15.3161C11.468 14.546 10.8668 14.0038 10.436 13.0919C10.2926 12.7724 10.092 12.265 10.3214 11.9224C10.3781 11.6943 10.4937 11.6029 10.7222 11.5518C11.0948 11.2321 12.1575 11.6374 12.5304 11.8073C13.5914 12.2355 14.4809 12.6344 15.3703 13.2325C15.7723 13.5175 16.203 14.0596 16.7194 14.2028H17.3227C18.2409 14.402 19.2731 14.2666 20.1328 14.5223C21.6539 15.0079 23.0306 15.7199 24.2653 16.4906C28.0235 18.8573 31.1231 22.222 33.2168 26.2431C33.5609 26.8989 33.7043 27.4978 34.0207 28.1821C34.624 29.5799 35.37 31.0052 35.9712 32.3746C36.5745 33.7148 37.148 35.0845 38.0086 36.1963C38.4394 36.7952 40.1602 37.1083 40.9345 37.4221C41.5088 37.6778 42.3975 37.908 42.9152 38.2211C43.89 38.8199 44.8657 39.5043 45.7833 40.1601C46.2417 40.5013 47.6773 41.2146 47.7626 41.7834L47.7659 41.7679ZM18.5058 16.9891C18.1095 16.9857 17.7144 17.0336 17.3304 17.1316V17.1956H17.3869C17.6166 17.6519 18.0185 17.9657 18.3052 18.3651L18.9656 19.7338L19.0223 19.6701C19.4241 19.3851 19.6254 18.9288 19.6254 18.2451C19.4531 18.0456 19.4248 17.8455 19.2813 17.646C19.1091 17.361 18.7362 17.2178 18.5058 16.9905V16.9891Z" fill="white"/>
</g>
<defs>
<linearGradient id="paint0_linear_51_24" x1="30" y1="0" x2="30" y2="60" gradientUnits="userSpaceOnUse">
<stop stop-color="#C95792"/>
<stop offset="1" stop-color="#9747FF"/>
</linearGradient>
</defs>
</svg>
