<svg width="53" height="53" viewBox="0 0 53 53" fill="none" xmlns="http://www.w3.org/2000/svg">
<mask id="mask0_46_48" style="mask-type:luminance" maskUnits="userSpaceOnUse" x="0" y="0" width="53" height="53">
<path d="M0 0H53V53H0V0Z" fill="white"/>
</mask>
<g mask="url(#mask0_46_48)">
<path d="M26.3101 0C12.8525 0 13.6917 5.86533 13.6917 5.86533L13.7071 11.9427H26.5464V13.7668H8.6125C8.6125 13.7668 0 12.784 0 26.4315C0 40.079 7.51496 39.5932 7.51496 39.5932H11.9979V33.2619C11.9979 33.2619 11.7572 25.7094 19.3958 25.7094H32.129C32.129 25.7094 39.284 25.8243 39.284 18.7576V7.07108C39.284 7.07108 40.3705 0 26.3101 0ZM19.2302 4.08542C20.5066 4.08542 21.5401 5.12333 21.5401 6.40858C21.5401 7.69163 20.5066 8.72954 19.2302 8.72954C17.9538 8.72954 16.9202 7.69163 16.9202 6.40858C16.9202 5.12333 17.9515 4.08542 19.2302 4.08542Z" fill="url(#paint0_linear_46_48)"/>
<path d="M26.6921 52.9999C40.1453 52.9999 39.3061 47.1346 39.3061 47.1346L39.2906 41.0572H26.4514V39.2331H44.3897C44.3897 39.2331 53.0022 40.2159 53.0022 26.5684C53.0022 12.9209 45.485 13.4067 45.485 13.4067H41.0021V19.738C41.0021 19.738 41.2428 27.2905 33.6042 27.2905H20.8731C20.8731 27.2905 13.7181 27.1756 13.7181 34.2423V45.9288C13.7181 45.9288 12.6316 52.9999 26.6921 52.9999ZM33.772 48.9145C32.4934 48.9145 31.4621 47.8766 31.4621 46.5913C31.4621 45.3083 32.4934 44.2704 33.772 44.2704C35.0484 44.2704 36.0819 45.3083 36.0819 46.5913C36.0819 47.8766 35.0484 48.9145 33.772 48.9145Z" fill="url(#paint1_linear_46_48)"/>
</g>
<defs>
<linearGradient id="paint0_linear_46_48" x1="19.6517" y1="0" x2="19.6517" y2="39.5954" gradientUnits="userSpaceOnUse">
<stop stop-color="#C95792"/>
<stop offset="1" stop-color="#9747FF"/>
</linearGradient>
<linearGradient id="paint1_linear_46_48" x1="33.3504" y1="13.4045" x2="33.3504" y2="52.9999" gradientUnits="userSpaceOnUse">
<stop stop-color="#C95792"/>
<stop offset="1" stop-color="#9747FF"/>
</linearGradient>
</defs>
</svg>
