<svg width="70" height="67" viewBox="0 0 70 67" fill="none" xmlns="http://www.w3.org/2000/svg">
<g filter="url(#filter0_d_13_77)">
<path d="M21.1338 12.718C22.99 14.2311 23.6931 14.1243 27.1975 13.8899L60.235 11.908C60.9381 11.908 60.3531 11.2049 60.1169 11.0868L54.6288 7.12113C53.5844 6.29988 52.1781 5.37363 49.4913 5.59675L17.5094 7.9405C16.3375 8.04738 16.1031 8.63425 16.5719 9.103L21.1338 12.718ZM23.1156 20.4243V55.1793C23.1156 57.0449 24.0438 57.748 26.1438 57.6299L62.4531 55.5299C64.5531 55.4118 64.7969 54.133 64.7969 52.6105V18.0899C64.7969 16.5655 64.21 15.7555 62.9219 15.8736L24.9831 18.0899C23.5769 18.208 23.1175 18.8999 23.1175 20.4149L23.1156 20.4243ZM58.9563 22.2786C59.1906 23.3343 58.9563 24.3786 57.9006 24.5061L56.1531 24.8586V50.5124C54.6288 51.3336 53.2338 51.8024 52.0713 51.8024C50.1963 51.8024 49.7275 51.2155 48.3306 49.468L36.8856 31.4999V48.883L40.5081 49.7043C40.5081 49.7043 40.5081 51.8043 37.5888 51.8043L29.5319 52.273C29.2975 51.8043 29.5319 50.6324 30.3531 50.4074L32.4531 49.8205V26.8424L29.5338 26.608C29.2994 25.5524 29.8863 24.0393 31.5156 23.923L40.1575 23.3361L52.0713 41.5386V25.4343L49.0338 25.0818C48.7994 23.803 49.7275 22.8655 50.8994 22.7568L58.9563 22.2786ZM14.8244 4.78863L48.0963 2.338C52.1781 1.9855 53.2338 2.21988 55.8006 4.0855L66.4263 11.5555C68.1738 12.8343 68.7606 13.1868 68.7606 14.5836V55.5318C68.7606 58.1005 67.8231 59.6136 64.5606 59.848L25.9075 62.1824C23.4663 62.3005 22.2944 61.948 21.0044 60.3168L13.1819 50.1599C11.785 48.2943 11.2 46.8974 11.2 45.268V8.87238C11.2 6.77238 12.1375 5.02488 14.8225 4.7905L14.8244 4.78863Z" fill="url(#paint0_linear_13_77)"/>
</g>
<defs>
<filter id="filter0_d_13_77" x="-1.21874" y="-4.88758e-05" width="71.2" height="66.4032" filterUnits="userSpaceOnUse" color-interpolation-filters="sRGB">
<feFlood flood-opacity="0" result="BackgroundImageFix"/>
<feColorMatrix in="SourceAlpha" type="matrix" values="0 0 0 0 0 0 0 0 0 0 0 0 0 0 0 0 0 0 127 0" result="hardAlpha"/>
<feOffset dx="-8" dy="1"/>
<feGaussianBlur stdDeviation="1.6"/>
<feComposite in2="hardAlpha" operator="out"/>
<feColorMatrix type="matrix" values="0 0 0 0 0 0 0 0 0 0 0 0 0 0 0 0 0 0 0.25 0"/>
<feBlend mode="normal" in2="BackgroundImageFix" result="effect1_dropShadow_13_77"/>
<feBlend mode="normal" in="SourceGraphic" in2="effect1_dropShadow_13_77" result="shape"/>
</filter>
<linearGradient id="paint0_linear_13_77" x1="39.9803" y1="2.19995" x2="39.9803" y2="62.2032" gradientUnits="userSpaceOnUse">
<stop stop-color="#C95792"/>
<stop offset="1" stop-color="#9747FF"/>
</linearGradient>
</defs>
</svg>
