<svg width="65" height="60" viewBox="0 0 65 60" fill="none" xmlns="http://www.w3.org/2000/svg">
<g filter="url(#filter0_d_13_80)">
<path fill-rule="evenodd" clip-rule="evenodd" d="M57.575 2.19995C59.3321 2.19995 61.0172 2.89794 62.2596 4.14037C63.502 5.3828 64.2 7.06789 64.2 8.82495V48.575C64.2 50.332 63.502 52.0171 62.2596 53.2595C61.0172 54.502 59.3321 55.2 57.575 55.2H17.825C16.068 55.2 14.3829 54.502 13.1404 53.2595C11.898 52.0171 11.2 50.332 11.2 48.575V2.19995H57.575ZM26.4044 27.0371C24.3992 27.0371 22.7927 27.598 21.5847 28.7198C20.3767 29.8394 19.7728 31.478 19.7728 33.6356V43.9242C19.7728 46.1016 20.3547 47.7402 21.5184 48.84C22.6822 49.9397 24.2347 50.4896 26.1758 50.4896C27.4478 50.4896 28.5697 50.2422 29.5413 49.7476C30.5351 49.2507 31.3113 48.5065 31.87 47.515C32.4331 46.5212 32.7136 45.2912 32.7114 43.8248V43.212H28.6701V43.795C28.6701 44.7866 28.4648 45.5407 28.054 46.0574C27.6433 46.5742 27.0614 46.8337 26.3083 46.8359C25.4868 46.8138 24.8718 46.5223 24.4633 45.9614C24.0525 45.3983 23.8471 44.5679 23.8471 43.4704V34.2848C23.8471 33.0769 24.0304 32.1814 24.397 31.5984C24.7879 31.0154 25.425 30.7239 26.3083 30.7239C27.0172 30.7239 27.5881 30.9723 28.0209 31.4692C28.4515 31.9639 28.6668 32.7291 28.6668 33.7648V34.4438H32.7412V33.735C32.7412 32.2465 32.4729 31.0055 31.9363 30.0117C31.4531 29.0577 30.6842 28.2783 29.7368 27.7824C28.8093 27.2855 27.6985 27.0371 26.4044 27.0371ZM40.3633 27.004C39.0692 27.004 37.9584 27.2734 37.0309 27.8122C36.1333 28.3433 35.4041 29.1172 34.9275 30.0448C34.4114 31.0665 34.1553 32.1998 34.1821 33.3441C34.1821 35.007 34.5057 36.3121 35.1527 37.2594C35.824 38.187 36.8918 38.9952 38.3559 39.6842L39.9094 40.3964C40.8811 40.8071 41.5712 41.2819 41.9798 41.8208C42.3905 42.3596 42.5959 43.0607 42.5959 43.9242C42.5959 44.9798 42.4126 45.756 42.046 46.2529C41.6993 46.7476 41.1163 46.9949 40.297 46.9949C39.502 46.9949 38.898 46.7255 38.4851 46.1866C38.0765 45.65 37.8502 44.8197 37.806 43.6956H33.9569C34.0011 45.8951 34.5509 47.5779 35.6065 48.7439C36.6643 49.9077 38.1958 50.4896 40.201 50.4896C42.2061 50.4896 43.7696 49.9176 44.8914 48.7737C46.0133 47.6298 46.5742 45.9912 46.5742 43.858C46.5742 42.0692 46.2076 40.6459 45.4744 39.5881C44.7391 38.5303 43.5852 37.6581 42.0129 36.9713L40.5223 36.322C39.661 35.9554 39.0471 35.5347 38.6805 35.06C38.3161 34.5874 38.1328 33.9514 38.1306 33.152C38.1306 32.2686 38.3139 31.6105 38.6805 31.1777C39.067 30.7471 39.6279 30.5318 40.3633 30.5318C41.1583 30.5318 41.7192 30.7901 42.046 31.3069C42.3905 31.8236 42.5837 32.5999 42.6257 33.6356H46.3456C46.2794 31.4802 45.7295 29.8417 44.696 28.7198C43.6625 27.5759 42.2183 27.004 40.3633 27.004ZM53.8021 27.004C52.5102 27.004 51.3994 27.2734 50.4697 27.8122C49.5733 28.3437 48.8453 29.1177 48.3696 30.0448C47.8535 31.0665 47.5975 32.1998 47.6243 33.3441C47.6243 35.007 47.9478 36.3121 48.5948 37.2594C49.2639 38.187 50.3317 38.9952 51.798 39.6842L53.3516 40.3964C54.3188 40.8071 55.0089 41.2819 55.4219 41.8208C55.8304 42.3596 56.0347 43.0607 56.0347 43.9242C56.0347 44.9798 55.8514 45.756 55.4848 46.2529C55.1403 46.7476 54.5584 46.9949 53.7391 46.9949C52.9419 46.9971 52.338 46.7277 51.9272 46.1866C51.5164 45.65 51.2901 44.8197 51.2481 43.6956H47.399C47.4432 45.8951 47.9931 47.5779 49.0486 48.7439C50.1064 49.9077 51.6368 50.4896 53.6398 50.4896C55.6471 50.4896 57.2117 49.9176 58.3336 48.7737C59.4532 47.632 60.013 45.9934 60.013 43.858C60.013 42.0692 59.6464 40.6459 58.9133 39.5881C58.1801 38.5303 57.0262 37.6581 55.4517 36.9713L53.9644 36.322C53.1031 35.9554 52.4892 35.5347 52.1226 35.06C51.7561 34.5874 51.5728 33.9514 51.5728 33.152C51.5728 32.2686 51.7549 31.6105 52.1193 31.1777C52.5102 30.7471 53.0711 30.5318 53.8021 30.5318C54.5993 30.5318 55.1602 30.7901 55.4848 31.3069C55.8293 31.8236 56.0237 32.5999 56.0678 33.6356H59.7878C59.7215 31.4802 59.1716 29.8417 58.1381 28.7198C57.1002 27.5759 55.6549 27.004 53.8021 27.004Z" fill="url(#paint0_linear_13_80)"/>
</g>
<defs>
<filter id="filter0_d_13_80" x="1.21593e-05" y="-4.88758e-05" width="64.2" height="59.4" filterUnits="userSpaceOnUse" color-interpolation-filters="sRGB">
<feFlood flood-opacity="0" result="BackgroundImageFix"/>
<feColorMatrix in="SourceAlpha" type="matrix" values="0 0 0 0 0 0 0 0 0 0 0 0 0 0 0 0 0 0 127 0" result="hardAlpha"/>
<feOffset dx="-8" dy="1"/>
<feGaussianBlur stdDeviation="1.6"/>
<feComposite in2="hardAlpha" operator="out"/>
<feColorMatrix type="matrix" values="0 0 0 0 0 0 0 0 0 0 0 0 0 0 0 0 0 0 0.25 0"/>
<feBlend mode="normal" in2="BackgroundImageFix" result="effect1_dropShadow_13_80"/>
<feBlend mode="normal" in="SourceGraphic" in2="effect1_dropShadow_13_80" result="shape"/>
</filter>
<linearGradient id="paint0_linear_13_80" x1="37.7" y1="2.19995" x2="37.7" y2="55.2" gradientUnits="userSpaceOnUse">
<stop stop-color="#C95792"/>
<stop offset="1" stop-color="#9747FF"/>
</linearGradient>
</defs>
</svg>
