<svg width="49" height="61" viewBox="0 0 49 61" fill="none" xmlns="http://www.w3.org/2000/svg">
<path d="M24.5 0L0 11.0909V27.7273C0 43.1159 10.4533 57.5064 24.5 61C38.5467 57.5064 49 43.1159 49 27.7273V11.0909L24.5 0ZM24.5 16.6364C28.3111 16.6364 32.1222 19.6864 32.1222 23.5682V27.7273C33.7556 27.7273 35.3889 29.3909 35.3889 31.3318V41.0364C35.3889 42.7 33.7556 44.3636 31.85 44.3636H16.8778C15.2444 44.3636 13.6111 42.7 13.6111 40.7591V31.0545C13.6111 29.3909 15.2444 27.7273 16.8778 27.7273V23.5682C16.8778 19.6864 20.6889 16.6364 24.5 16.6364ZM24.5 19.9636C22.3222 19.9636 20.4167 21.35 20.4167 23.5682V27.7273H28.5833V23.5682C28.5833 21.35 26.6778 19.9636 24.5 19.9636Z" fill="url(#paint0_linear_46_57)"/>
<defs>
<linearGradient id="paint0_linear_46_57" x1="24.5" y1="0" x2="24.5" y2="61" gradientUnits="userSpaceOnUse">
<stop stop-color="#C95792"/>
<stop offset="1" stop-color="#9747FF"/>
</linearGradient>
</defs>
</svg>
