<svg width="60" height="60" viewBox="0 0 60 60" fill="none" xmlns="http://www.w3.org/2000/svg">
<path d="M60 8.57143C60 3.84375 56.1562 0 51.4286 0H8.57143C3.84375 0 0 3.84375 0 8.57143V51.4286C0 56.1562 3.84375 60 8.57143 60H51.4286C56.1562 60 60 56.1562 60 51.4286V8.57143ZM24.2277 55.2991C19.7143 55.2991 17.1027 52.9687 15.7634 50.1429L20.3571 47.3705C21.2411 48.9375 22.0446 50.2634 23.9866 50.2634C25.8348 50.2634 27.0134 49.5402 27.0134 46.7143V27.5491H32.6518V46.7946C32.6518 52.6339 29.2232 55.2991 24.2277 55.2991ZM35.7188 49.5402L40.3125 46.8884C41.5179 48.8571 43.0982 50.317 45.8705 50.317C48.2009 50.317 49.7009 49.1518 49.7009 47.5312C49.7009 45.6027 48.1741 44.9196 45.5893 43.7812L44.183 43.1786C40.1116 41.4509 37.4196 39.2679 37.4196 34.6741C37.4196 30.442 40.6473 27.2277 45.6696 27.2277C49.2589 27.2277 51.8304 28.4732 53.6786 31.7411L49.2857 34.5536C48.3214 32.8259 47.2768 32.1429 45.6562 32.1429C44.0089 32.1429 42.9643 33.1875 42.9643 34.5536C42.9643 36.2411 44.0089 36.9241 46.433 37.9821L47.8393 38.5848C52.6339 40.6339 55.3259 42.7366 55.3259 47.4509C55.3259 52.5134 51.3348 55.2991 45.9911 55.2991C40.7545 55.2991 37.3661 52.808 35.7188 49.5402Z" fill="url(#paint0_linear_46_60)"/>
<defs>
<linearGradient id="paint0_linear_46_60" x1="30" y1="0" x2="30" y2="60" gradientUnits="userSpaceOnUse">
<stop stop-color="#C95792"/>
<stop offset="1" stop-color="#9747FF"/>
</linearGradient>
</defs>
</svg>
